<?xml version="1.0" encoding="UTF-8" standalone="no"?>
<!-- Created with Inkscape (http://www.inkscape.org/) -->

<svg
   width="126.31684mm"
   height="126.25896mm"
   viewBox="0 0 126.31684 126.25896"
   version="1.1"
   id="svg5"
   inkscape:version="1.2.2 (b0a8486541, 2022-12-01)"
   sodipodi:docname="launcher.svg"
   xmlns:inkscape="http://www.inkscape.org/namespaces/inkscape"
   xmlns:sodipodi="http://sodipodi.sourceforge.net/DTD/sodipodi-0.dtd"
   xmlns="http://www.w3.org/2000/svg"
   xmlns:svg="http://www.w3.org/2000/svg">
  <sodipodi:namedview
     id="namedview7"
     pagecolor="#505050"
     bordercolor="#eeeeee"
     borderopacity="1"
     inkscape:showpageshadow="0"
     inkscape:pageopacity="0"
     inkscape:pagecheckerboard="0"
     inkscape:deskcolor="#505050"
     inkscape:document-units="mm"
     showgrid="false"
     inkscape:zoom="0.80176768"
     inkscape:cx="311.1874"
     inkscape:cy="180.22677"
     inkscape:window-width="1884"
     inkscape:window-height="961"
     inkscape:window-x="18"
     inkscape:window-y="18"
     inkscape:window-maximized="0"
     inkscape:current-layer="layer1" />
  <defs
     id="defs2" />
  <g
     inkscape:label="Layer 1"
     inkscape:groupmode="layer"
     id="layer1"
     transform="translate(-18.302759,-83.178902)">
    <path
       id="path111"
       style="fill:#ffffff;fill-opacity:1;stroke-width:0.264583"
       d="m 75.966939,83.178902 a 57.66547,57.66547 0 0 0 -57.66418,57.665728 57.66547,57.66547 0 0 0 57.665731,57.66522 57.66547,57.66547 0 0 0 34.12867,-11.19002 l 19.92643,19.92643 0.0134,-0.0124 a 8.7182312,8.462203 0 0 0 5.86425,2.204 8.7182312,8.462203 0 0 0 8.71833,-8.46253 8.7182312,8.462203 0 0 0 -2.95124,-6.33915 l -19.40967,-19.40967 a 57.66547,57.66547 0 0 0 11.37501,-34.38239 H 116.1965 A 40.228664,40.228664 0 0 1 75.96846,181.07267 40.228664,40.228664 0 0 1 35.739391,140.84463 40.228664,40.228664 0 0 1 75.967426,100.61556 40.228664,40.228664 0 0 1 116.1965,140.84308 l 17.43717,-5.1e-4 A 57.66547,57.66547 0 0 0 75.966939,83.178902 Z" />
  </g>
</svg>
